#!OML:ASF F:\VICON\USERDATA\INSTALL\rory3\rory3.ASF
:FULLY-SPECIFIED
:DEGREES
1
root 0.05578421849434689 17.59420593859773 -32.06218288445018 5.438582140823858 -6.202549620133321 -0.9711754287887218
lfemur -1.6526678032673363 0.024611927358127783 -23.642394231749165
ltibia 81.15419040163727
lfoot 33.63988262176849 -19.38508640198061
ltoes 2.0899947656728948
rfemur -35.012490642510954 5.483084110567509 28.48800094532894
rtibia 41.54660648233535
rfoot -8.26864083530432 -3.0553255734937665
rtoes 9.648036046318866
lowerback 17.323986461279812 -0.9135806560669183 -0.8102950779421554
upperback -0.5970679311603312 -1.1077680552194782 2.6107606281510014
thorax -10.344686516956076 -0.39969933811207625 3.604355302934586
lowerneck -17.728204951213016 -1.9389125974538421 -2.8966656720263986
upperneck 10.05339203812393 -2.206563465671704 2.0903885198446917
head 5.982877507375946 -1.0150419497058596 0.910574576034286
lclavicle -1.3367475616306588e-15 -2.75897930325138e-15
lhumerus -41.45490538710769 -16.422678854437027 95.71178635216938
lradius 108.27000512077353
lwrist 29.81700358291573
lhand -21.871811274085495 3.876457918696939
lfingers 7.12502
lthumb 4.532568725501013 33.80799800797607
rclavicle -1.3367475616306588e-15 -2.75897930325138e-15
rhumerus -58.36759238651859 9.712662958385259 -93.94041075726564
rradius 98.30791214599104
rwrist -18.658014188455994
rhand -23.235578546794827 43.50278859122989
rfingers 7.12502
rthumb 3.215561457734964 13.547289004352425
2
root 0.04213300155275301 17.49010768942376 -31.59738308206975 5.2864630040434255 -6.12176980225303 -1.4268945069381669
lfemur -3.9143166188821628 0.6689840238208862 -22.038096680926763
ltibia 85.30608894853985
lfoot 33.68128259693265 -18.224787960062358
ltoes -1.7375114391495963
rfemur -34.67619080660877 7.076230554647356 28.902400179254787
rtibia 44.36260547221851
rfoot -10.42388945158846 -5.683350550526927
rtoes 10.132295661099633
lowerback 17.822284002823427 -0.9209466014634392 -0.6359626140285068
upperback -0.659872166485308 -1.0529183140610197 2.8312589278901146
thorax -10.70268293374696 -0.3682796893819019 3.75360465507072
lowerneck -17.860604211085477 -1.612654635648739 -2.790817739240153
upperneck 10.053192039187731 -1.7757953575293723 1.9928291965818619
head 5.991477385254707 -0.809169895820929 0.9058786869900828
lclavicle -1.3367475698539193e-15 -2.758979255552774e-15
lhumerus -42.010904971014355 -15.177381677073289 95.88108595052995
lradius 106.16000748722924
lwrist 30.011402965854238
lhand -22.013110740412863 3.6548687076634554
lfingers 7.12502
lthumb 4.396089259255 33.58919878892414
rclavicle -1.3367475698539193e-15 -2.758979255552774e-15
rhumerus -56.77229372929002 10.775201401556753 -94.63910886462493
rradius 97.89671256915284
rwrist -19.9356094759343
rhand -22.358182504381553 42.90229027327596
rfingers 7.12502
rthumb 4.062927497852552 12.961290638863716
3
root 0.02261739212702718 17.432108664907997 -31.127383281900148 5.22540335053427 -5.983220114616028 -2.310910778880145
lfemur -6.235045403557896 1.4038056513449626 -19.740000189282437
ltibia 89.05098763788565
lfoot 33.757682551100395 -17.794688537612057
ltoes -0.21514694865559036
rfemur -33.65199130636779 8.326857763233864 29.913598309915546
rtibia 46.16760482475361
rfoot -12.38248819412602 -7.806146493208702
rtoes 9.09028648999794
lowerback 17.968983279051503 -0.9364064868598695 0.23596270473096959
upperback -0.39905234210561796 -0.8845261087210485 2.9036083700040587
thorax -10.518384778399028 -0.33947301143886555 3.2861266843062227
lowerneck -18.091102922570382 -1.9412625827730472 -3.0412728478433
upperneck 10.49658968072945 -2.228903367558786 2.4893657522699053
head 6.19120454905992 -0.9958691309471257 1.0568281203141088
lclavicle -1.3367474995450203e-15 -2.7589793625523e-15
lhumerus -42.05810493569133 -14.413083409459794 95.56888669117866
lradius 103.99500991536985
lwrist 29.948003167097546
lhand -22.872907493054576 3.3975596238102774
lfingers 7.12502
lthumb 3.565882506088986 33.34749965160765
rclavicle -1.3367474995450203e-15 -2.7589793625523e-15
rhumerus -54.23469586519972 11.458300400681912 -95.51300649740193
rradius 97.37601310499994
rwrist -21.030205438421596
rhand -21.631585781772156 42.3077919385156
rfingers 7.12502
rthumb 4.764484219361327 12.381292256639398
4
root 0.0097984157359855 17.346010112997536 -30.674183474587576 5.280313038942193 -5.657650848618372 -3.445585993747601
lfemur -8.929153992701266 2.0910343677615106 -17.16370412234746
ltibia 92.7715863357362
lfoot 33.05408297318906 -18.209387980741855
ltoes 1.346515502872446
rfemur -32.688391776557026 9.294065604415456 31.256095828123687
rtibia 47.81160423504053
rfoot -14.496586836829254 -9.533093192480568
rtoes 7.5747776955561426
lowerback 17.610685046791655 -1.0570365926332967 1.782599948696969
upperback 0.12924722556570267 -0.7621146863930603 2.770959392859422
thorax -9.75774239171751 -0.37370762869785923 2.198721404531613
lowerneck -19.075797418011547 -2.1004915880394828 -2.8871758573628044
upperneck 10.907487495139655 -2.562571902145346 3.139101245266948
head 6.501540142187191 -1.0850212881889485 1.1999147394229366
lclavicle -1.336747548062276e-15 -2.7589792903599445e-15
lhumerus -41.67910521932329 -13.936084490643054 94.78998853900464
lradius 101.93001223135609
lwrist 30.05650282269852
lhand -23.090206672339338 3.681698612135807
lfingers 7.12502
lthumb 3.3559833269782224 33.63499862545329
rclavicle -1.336747548062276e-15 -2.7589792903599445e-15
rhumerus -51.153098458996745 11.886699772992287 -96.53830372006615
rradius 97.04281344789277
rwrist -21.771602703713096
rhand -21.54138618862686 42.11859246847917
rfingers 7.12502
rthumb 4.851593812283722 12.194192778511526
5
root -6.5518079863657874e-06 17.275711295351712 -30.218183668465475 5.377172489300807 -4.897892561508454 -4.418551890572775
lfemur -11.922102425347537 2.333693914529912 -14.805807721995814
ltibia 96.15658515104121
lfoot 32.33048340727562 -18.53608754204042
ltoes 2.540704318770228
rfemur -31.50599235350984 9.68613472931293 32.48999354709354
rtibia 48.929003834222115
rfoot -16.483985560876576 -11.303889807941694
rtoes 7.216447980600567
lowerback 18.09088267763501 -1.070896489890384 2.3717281370803773
upperback 0.13632513938833057 -0.5765485620985651 3.3809746890356327
thorax -10.027989686794982 -0.2958284993819432 2.4973901080659564
lowerneck -20.36169022971845 -2.3133502582713024 -3.2140294739004736
upperneck 11.699183284062912 -2.7330811532987367 3.0747516916387916
head 6.977783379368546 -1.1730404561409595 1.204134639713937
lclavicle -1.3367476111757985e-15 -2.758979265865968e-15
lhumerus -41.89180506014513 -12.865086918205456 95.31108730277133
lradius 99.9602144405715
lwrist 30.009502971885194
lhand -23.133806507667536 3.760358332068537
lfingers 7.12502
lthumb 3.3138434917818067 33.71439834205623
rclavicle -1.3367476111757985e-15 -2.758979265865968e-15
rhumerus -48.8283004157917 12.861398344866522 -96.40160409035953
rradius 97.13901334889425
rwrist -22.525099924372853
rhand -21.50758634108461 41.64409379758969
rfingers 7.12502
rthumb 4.884293659471892 11.720394100066898
6
root -0.010633531264457763 17.221112213652397 -29.757883864171742 5.521111672499437 -4.190464156419776 -4.870729983655191
lfemur -15.338000636502532 2.5889834377084493 -13.235210119725874
ltibia 99.16838409696015
lfoot 32.10738354111298 -18.327487822154062
ltoes 5.378661504783629
rfemur -30.253392964716724 9.874534308803018 33.20939221718586
rtibia 49.81600351604965
rfoot -18.04178456073617 -12.8678868186607
rtoes 5.633519239790042
lowerback 18.158882342144274 -1.1226061065688846 2.842286690074954
upperback 0.29605319461416857 -0.5362847521076004 3.5097636959444736
thorax -9.894351024392936 -0.296055496844125 2.357190716645614
lowerneck -21.29708500075092 -2.4734092583526026 -2.964324350650087
upperneck 11.836182555355688 -2.966090129964349 2.8999529041609016
head 7.175950565325982 -1.2804894404222962 1.0721077592824704
lclavicle -1.3367476052138836e-15 -2.758979246528669e-15
lhumerus -41.98120499324094 -12.094988663738423 95.238987473818
lradius 98.25131635717632
lwrist 29.327305137313925
lhand -23.53570498974093 4.284646465345061
lfingers 7.12502
lthumb 2.9257950093905185 34.24429645071991
rclavicle -1.3367476052138836e-15 -2.758979246528669e-15
rhumerus -45.92310286111203 13.643097199523435 -96.64600342832804
rradius 97.14731334035282
rwrist -23.127997700531807
rhand -21.330687139006987 40.97609566870841
rfingers 7.12502
rthumb 5.055042861532481 11.05639595214113
7
root -0.024032957115865172 17.182612861172107 -29.303184057496882 5.576431358580779 -3.966954660326347 -4.8414901069650895
lfemur -18.731898859178543 3.2880121320853894 -12.436811338589784
ltibia 101.67998321794104
lfoot 31.861583688568025 -17.498888934820187
ltoes 8.98555792835262
rfemur -28.825393661510248 10.104283795999654 33.416491834333634
rtibia 50.46160328446885
rfoot -19.28978375949385 -14.016484623335788
rtoes 2.1451920146874897
lowerback 18.515880580817896 -1.060156569505026 2.5300876501121303
upperback 0.10764948852965783 -0.48035601604102074 3.6224328271535766
thorax -10.30288693533077 -0.24961201607951067 2.6612293968698757
lowerneck -20.983686752684235 -2.485459183074455 -3.0544225910283656
upperneck 11.736783084067362 -2.942520233479183 2.778873744047499
head 7.090691776030269 -1.288329366311225 1.0518882370350702
lclavicle -1.3367475519683209e-15 -2.7589793019622267e-15
lhumerus -43.02610421126986 -10.82819153510728 95.36078718486537
lradius 97.00071775977796
lwrist 28.20390870319291
lhand -23.622204663041124 4.851574446802767
lfingers 7.12502
lthumb 2.842215336260086 34.812394423038896
rclavicle -1.3367475519683209e-15 -2.7589793019622267e-15
rhumerus -43.9271045411545 14.679295681288172 -96.92490267284288
rradius 97.54271293345064
rwrist -23.79999522181032
rhand -21.405986799359987 41.11819527067552
rfingers 7.12502
rthumb 4.982383201083156 11.196795560527839
